<?xml version="1.0" encoding="utf-8"?>
<!-- Generator: Adobe Illustrator 24.0.1, SVG Export Plug-In . SVG Version: 6.00 Build 0)  -->
<svg version="1.1" xmlns="http://www.w3.org/2000/svg" xmlns:xlink="http://www.w3.org/1999/xlink" x="0px" y="0px"
	 viewBox="0 0 595.28 595.28" style="enable-background:new 0 0 595.28 595.28;" xml:space="preserve">
<style type="text/css">
	.st0{fill:#308BCB;}
	.st1{fill:#FFFFFF;}
	.st2{fill:#F6891F;}
</style>
<g id="Layer_3">
	<rect width="595.28" height="595.28"/>
</g>
<g id="Layer_1">
	<path class="st0" d="M52.04,384.47h-6.1v-54.76h9.01c2.37,0,4.72,0.13,7.04,0.4c2.32,0.27,4.5,1.1,6.54,2.51
		c2.03,1.41,3.57,3.22,4.61,5.45c1.04,2.23,1.56,4.58,1.56,7.05c0,2.23-0.45,4.39-1.34,6.5c-0.9,2.11-2.19,3.86-3.89,5.27
		c-1.84,1.55-3.89,2.54-6.14,2.98c-2.25,0.44-4.54,0.65-6.86,0.65h-4.43V384.47z M52.04,354.84h4.07c1.69,0,3.29-0.14,4.79-0.44
		c1.5-0.29,2.82-0.81,3.96-1.56c1.14-0.75,2.05-1.77,2.72-3.05c0.68-1.28,1.02-2.89,1.02-4.83c0-2.23-0.41-3.98-1.23-5.27
		c-0.82-1.28-1.9-2.24-3.23-2.87c-1.33-0.63-2.86-1.03-4.58-1.2c-1.72-0.17-3.47-0.25-5.27-0.25h-2.25V354.84z"/>
	<path class="st0" d="M101.5,378.81h15.11v5.66H95.4v-54.76h6.1V378.81z"/>
	<path class="st0" d="M149.21,368.93l-6.61,15.54h-6.68l25.27-57.38l24.62,57.38h-6.75l-6.46-15.54H149.21z M161.05,341.33
		l-9.37,21.93h18.52L161.05,341.33z"/>
	<path class="st0" d="M218.04,384.47h-6.1v-49.1h-13.22v-5.67h32.68v5.67h-13.36V384.47z"/>
	<path class="st0" d="M261.06,335.38v16.27h18.23v5.66h-18.23v27.16h-6.1v-54.76h24.91v5.67H261.06z"/>
	<path class="st0" d="M328.92,329.57c2.92,0,5.66,0.55,8.24,1.65c2.57,1.1,4.82,2.61,6.75,4.54c1.93,1.93,3.45,4.17,4.56,6.72
		c1.12,2.56,1.67,5.29,1.67,8.21c0,2.92-0.56,5.65-1.67,8.21c-1.12,2.56-2.64,4.78-4.56,6.67c-1.93,1.89-4.18,3.38-6.75,4.48
		c-2.58,1.1-5.32,1.65-8.24,1.65c-2.92,0-5.66-0.55-8.24-1.65c-2.58-1.1-4.83-2.59-6.75-4.48c-1.93-1.89-3.45-4.11-4.56-6.67
		c-1.12-2.56-1.67-5.29-1.67-8.21c0-2.92,0.56-5.65,1.67-8.21c1.12-2.56,2.64-4.8,4.56-6.72c1.93-1.93,4.18-3.44,6.75-4.54
		C323.26,330.12,326.01,329.57,328.92,329.57z M328.92,333.78c-2.34,0-4.53,0.44-6.56,1.32c-2.03,0.88-3.8,2.09-5.29,3.62
		c-1.49,1.53-2.67,3.32-3.54,5.37c-0.86,2.05-1.3,4.23-1.3,6.54s0.43,4.47,1.3,6.51c0.86,2.03,2.05,3.82,3.56,5.35
		c1.51,1.53,3.29,2.75,5.32,3.65c2.03,0.9,4.2,1.35,6.51,1.35c2.3,0,4.47-0.45,6.51-1.35c2.03-0.9,3.81-2.12,5.32-3.65
		c1.51-1.53,2.7-3.31,3.56-5.35c0.86-2.03,1.3-4.2,1.3-6.51s-0.43-4.48-1.3-6.54c-0.86-2.05-2.04-3.84-3.54-5.37
		c-1.49-1.53-3.26-2.74-5.29-3.62C333.45,334.22,331.26,333.78,328.92,333.78z"/>
	<path class="st0" d="M386.29,384.47h-6.1v-54.76h7.92c2.61,0,5.12,0.21,7.52,0.62c2.4,0.41,4.53,1.17,6.39,2.29
		c1.86,1.11,3.35,2.65,4.47,4.61c1.11,1.96,1.67,4.49,1.67,7.59c0,4.26-1.22,7.75-3.67,10.46c-2.45,2.71-5.8,4.26-10.06,4.65
		l17.43,24.55h-7.48l-16.56-24.04h-1.53V384.47z M386.29,355.06h1.89c1.74,0,3.44-0.11,5.08-0.33c1.65-0.22,3.12-0.68,4.43-1.38
		c1.31-0.7,2.36-1.69,3.16-2.98c0.8-1.28,1.2-2.99,1.2-5.12c0-2.27-0.39-4.07-1.16-5.37c-0.78-1.31-1.8-2.29-3.09-2.94
		c-1.28-0.65-2.76-1.08-4.43-1.27c-1.67-0.19-3.43-0.29-5.27-0.29h-1.82V355.06z"/>
	<path class="st0" d="M440.3,326.69l19.9,45.97l19.97-45.97l11.11,57.89h-6.25l-7.05-37.04h-0.15l-17.65,39.29l-17.58-39.29h-0.14
		l-7.05,37.04h-6.25L440.3,326.69z"/>
	<g>
		<path class="st1" d="M563.87,368.86l-17.52-12.45l-0.15,0.15c0.5,1.19,0.87,2.4,1.12,3.62c0.25,1.22,0.37,2.52,0.37,3.91
			c0,2.68-0.52,5.22-1.57,7.61c-1.04,2.39-2.46,4.46-4.25,6.23c-1.79,1.77-3.88,3.17-6.26,4.21c-2.39,1.04-4.92,1.57-7.6,1.57
			c-2.73,0-5.29-0.53-7.68-1.6c-2.39-1.07-4.45-2.52-6.19-4.36c-1.74-1.84-3.12-3.98-4.14-6.41c-1.02-2.44-1.53-5-1.53-7.68
			c0-2.83,0.51-5.45,1.53-7.87c1.02-2.41,2.42-4.51,4.21-6.3c1.79-1.79,3.89-3.19,6.3-4.21c2.41-1.02,5.03-1.53,7.87-1.53
			c2.29,0,4.4,0.36,6.34,1.08c1.94,0.72,3.83,1.73,5.67,3.02l25.65,18.12L563.87,368.86z M511.82,363.64c0,2.24,0.42,4.35,1.27,6.34
			c0.85,1.99,2,3.74,3.47,5.26c1.47,1.52,3.19,2.71,5.18,3.58c1.99,0.87,4.1,1.3,6.34,1.3c2.24,0,4.34-0.43,6.3-1.3
			c1.96-0.87,3.69-2.06,5.18-3.58c1.49-1.52,2.66-3.27,3.5-5.26c0.85-1.99,1.27-4.1,1.27-6.34c0-2.24-0.42-4.35-1.27-6.34
			c-0.85-1.99-2.01-3.71-3.5-5.18c-1.49-1.47-3.22-2.64-5.18-3.5c-1.96-0.87-4.06-1.31-6.3-1.31c-2.24,0-4.35,0.44-6.34,1.31
			s-3.72,2.04-5.18,3.5c-1.47,1.47-2.62,3.19-3.47,5.18C512.25,359.29,511.82,361.4,511.82,363.64z"/>
		<path class="st1" d="M560.07,327.55c0-0.84,0.3-1.57,0.89-2.16c0.6-0.6,1.32-0.9,2.16-0.9s1.57,0.3,2.16,0.9
			c0.6,0.6,0.89,1.32,0.89,2.16c0,0.85-0.3,1.57-0.89,2.16c-0.6,0.6-1.32,0.9-2.16,0.9s-1.57-0.3-2.16-0.9
			C560.36,329.12,560.07,328.4,560.07,327.55z"/>
		<path class="st1" d="M512.57,309.28h-3.36V268.5l56.82,40.27l-2.16,2.76l-51.3-36.39V309.28z"/>
		<path class="st1" d="M512.57,245.98l15.21,4.7c-0.25-0.7-0.41-1.4-0.48-2.12c-0.07-0.72-0.11-1.43-0.11-2.13
			c0-2.68,0.5-5.19,1.49-7.53c0.99-2.34,2.36-4.36,4.1-6.08c1.74-1.71,3.76-3.06,6.08-4.03c2.31-0.97,4.81-1.45,7.49-1.45
			c2.88,0,5.53,0.52,7.94,1.57c2.41,1.04,4.5,2.49,6.26,4.33c1.76,1.84,3.14,3.99,4.14,6.45c0.99,2.46,1.49,5.11,1.49,7.94
			c0,3.43-0.82,6.61-2.46,9.54c-1.64,2.93-3.93,5.29-6.86,7.08l-1.34-3.28c2.24-1.44,4.02-3.37,5.33-5.78
			c1.32-2.41,1.98-4.96,1.98-7.64c0-2.34-0.42-4.52-1.27-6.56c-0.85-2.04-2-3.8-3.47-5.3c-1.47-1.49-3.21-2.66-5.22-3.5
			c-2.01-0.84-4.21-1.27-6.6-1.27c-2.24,0-4.31,0.44-6.23,1.3c-1.91,0.87-3.58,2.05-5,3.54c-1.42,1.49-2.52,3.23-3.32,5.22
			c-0.79,1.99-1.19,4.1-1.19,6.34c0,1.64,0.21,3.13,0.63,4.47c0.42,1.34,1.06,2.71,1.9,4.1l-23.86-7.31v-21.4h3.36V245.98z"/>
	</g>
	<g>
		<path class="st2" d="M45.86,226.99h32.09c7.62,0,13.41,1.83,17.36,5.49c3.96,3.66,5.93,8.94,5.93,15.82
			c0,4.18-0.75,7.64-2.25,10.38c-1.5,2.75-3.79,5.07-6.87,6.98c3.08,0.59,5.69,1.48,7.86,2.69c2.16,1.21,3.92,2.69,5.27,4.45
			c1.35,1.76,2.32,3.74,2.91,5.93c0.59,2.2,0.88,4.54,0.88,7.03c0,3.88-0.68,7.33-2.03,10.33c-1.36,3-3.26,5.53-5.71,7.58
			c-2.45,2.05-5.44,3.59-8.96,4.61c-3.52,1.03-7.47,1.54-11.87,1.54H45.86V226.99z M67.39,259.51h3.96c6.74,0,10.11-2.67,10.11-8.02
			s-3.37-8.02-10.11-8.02h-3.96V259.51z M67.39,293.14h4.72c5.42,0,9.3-0.7,11.65-2.09c2.34-1.39,3.52-3.63,3.52-6.7
			c0-3.08-1.17-5.31-3.52-6.7c-2.35-1.39-6.23-2.09-11.65-2.09h-4.72V293.14z"/>
		<path class="st2" d="M174.2,226.99v64.61h25.82v18.24h-47.36v-82.85H174.2z"/>
		<path class="st2" d="M274.42,226.99v82.85h-21.54v-82.85H274.42z"/>
		<path class="st2" d="M364.96,245.23v64.61h-21.54v-64.61h-17.69v-18.24h56.92v18.24H364.96z"/>
		<path class="st2" d="M452.1,291.6h34.73v18.24h-70.88l39.23-64.61h-32.64v-18.24h68.57L452.1,291.6z"/>
	</g>
	<rect x="312.09" y="381.64" class="st0" width="33.67" height="5.66"/>
</g>
<g id="Layer_2">
</g>
</svg>
